<!DOCTYPE svg PUBLIC "-//W3C//DTD SVG 1.1//EN" "http://www.w3.org/Graphics/SVG/1.1/DTD/svg11.dtd">
<!-- Uploaded to: SVG Repo, www.svgrepo.com, Transformed by: SVG Repo Mixer Tools -->
<svg width="800px" height="800px" viewBox="0 0 36 36" xmlns="http://www.w3.org/2000/svg" xmlns:xlink="http://www.w3.org/1999/xlink" aria-hidden="true" role="img" class="iconify iconify--twemoji" preserveAspectRatio="xMidYMid meet" fill="#000000">
<g id="SVGRepo_bgCarrier" stroke-width="0"/>
<g id="SVGRepo_iconCarrier">
<path fill="#FFC107" d="M32.938 15.651A1.002 1.002 0 0 0 32 15H19.925L26.89 1.458A.999.999 0 0 0 26 0a1 1 0 0 0-.653.243L18 6.588L3.347 19.243A1 1 0 0 0 4 21h12.075L9.11 34.542A.999.999 0 0 0 10 36a1 1 0 0 0 .653-.243L18 29.412l14.653-12.655a1 1 0 0 0 .285-1.106z"/>
</g>
</svg>